# Blender v2.79 (sub 0) OBJ File: ''
# www.blender.org
mtllib cone.mtl
o node_id31.001_mesh_id29
v 0.000000 -0.866431 -0.000000
v 1.767147 -0.866431 -0.139078
v 1.772611 -0.866431 -0.000000
v 1.767147 -0.866431 -0.139078
v 0.000000 2.679104 0.000000
v 1.772611 -0.866431 -0.000000
v 1.750788 -0.866431 -0.277298
v 1.750788 -0.866431 -0.277298
v 0.000000 2.679104 0.000000
v 1.723634 -0.866431 -0.413808
v 1.723634 -0.866431 -0.413808
v 0.000000 2.679104 0.000000
v 1.685854 -0.866431 -0.547767
v 1.685854 -0.866431 -0.547767
v 0.000000 2.679104 0.000000
v 1.637679 -0.866431 -0.678349
v 1.637679 -0.866431 -0.678349
v 0.000000 2.679104 0.000000
v 1.579409 -0.866431 -0.804749
v 1.579409 -0.866431 -0.804749
v 0.000000 2.679104 0.000000
v 1.511400 -0.866431 -0.926187
v 1.511400 -0.866431 -0.926187
v 0.000000 2.679104 0.000000
v 1.434073 -0.866431 -1.041915
v 1.434073 -0.866431 -1.041915
v 0.000000 2.679104 0.000000
v 1.347904 -0.866431 -1.151219
v 1.347904 -0.866431 -1.151219
v 0.000000 2.679104 0.000000
v 1.253426 -0.866431 -1.253426
v 1.253426 -0.866431 -1.253426
v 0.000000 2.679104 0.000000
v 1.151219 -0.866431 -1.347904
v 1.151219 -0.866431 -1.347904
v 0.000000 2.679104 0.000000
v 1.041915 -0.866431 -1.434073
v 1.041915 -0.866431 -1.434073
v 0.000000 2.679104 0.000000
v 0.926187 -0.866431 -1.511400
v 0.926187 -0.866431 -1.511400
v 0.000000 2.679104 0.000000
v 0.804749 -0.866431 -1.579409
v 0.804749 -0.866431 -1.579409
v 0.000000 2.679104 0.000000
v 0.678349 -0.866431 -1.637680
v 0.678349 -0.866431 -1.637680
v 0.000000 2.679104 0.000000
v 0.547767 -0.866431 -1.685854
v 0.547767 -0.866431 -1.685854
v 0.000000 2.679104 0.000000
v 0.413808 -0.866431 -1.723634
v 0.413808 -0.866431 -1.723634
v 0.000000 2.679104 0.000000
v 0.277297 -0.866431 -1.750788
v 0.277297 -0.866431 -1.750788
v 0.000000 2.679104 0.000000
v 0.139077 -0.866431 -1.767147
v 0.139077 -0.866431 -1.767147
v 0.000000 2.679104 0.000000
v -0.000000 -0.866431 -1.772612
v -0.000000 -0.866431 -1.772612
v 0.000000 2.679104 0.000000
v -0.139078 -0.866431 -1.767147
v -0.139078 -0.866431 -1.767147
v 0.000000 2.679104 0.000000
v -0.277297 -0.866431 -1.750788
v -0.277297 -0.866431 -1.750788
v 0.000000 2.679104 0.000000
v -0.413808 -0.866431 -1.723634
v -0.413808 -0.866431 -1.723634
v 0.000000 2.679104 0.000000
v -0.547767 -0.866431 -1.685854
v -0.547767 -0.866431 -1.685854
v 0.000000 2.679104 0.000000
v -0.678349 -0.866431 -1.637680
v -0.678349 -0.866431 -1.637680
v 0.000000 2.679104 0.000000
v -0.804749 -0.866431 -1.579408
v -0.804749 -0.866431 -1.579408
v 0.000000 2.679104 0.000000
v -0.926187 -0.866431 -1.511400
v -0.926187 -0.866431 -1.511400
v 0.000000 2.679104 0.000000
v -1.041915 -0.866431 -1.434073
v -1.041915 -0.866431 -1.434073
v 0.000000 2.679104 0.000000
v -1.151219 -0.866431 -1.347904
v -1.151219 -0.866431 -1.347904
v 0.000000 2.679104 0.000000
v -1.253426 -0.866431 -1.253426
v -1.253426 -0.866431 -1.253426
v 0.000000 2.679104 0.000000
v -1.347905 -0.866431 -1.151219
v -1.347905 -0.866431 -1.151219
v 0.000000 2.679104 0.000000
v -1.434073 -0.866431 -1.041915
v -1.434073 -0.866431 -1.041915
v 0.000000 2.679104 0.000000
v -1.511400 -0.866431 -0.926187
v -1.511400 -0.866431 -0.926187
v 0.000000 2.679104 0.000000
v -1.579409 -0.866431 -0.804749
v -1.579409 -0.866431 -0.804749
v 0.000000 2.679104 0.000000
v -1.637680 -0.866431 -0.678349
v -1.637680 -0.866431 -0.678349
v 0.000000 2.679104 0.000000
v -1.685854 -0.866431 -0.547767
v -1.685854 -0.866431 -0.547767
v 0.000000 2.679104 0.000000
v -1.723634 -0.866431 -0.413808
v -1.723634 -0.866431 -0.413808
v 0.000000 2.679104 0.000000
v -1.750788 -0.866431 -0.277298
v -1.750788 -0.866431 -0.277298
v 0.000000 2.679104 0.000000
v -1.767147 -0.866431 -0.139077
v -1.767147 -0.866431 -0.139077
v 0.000000 2.679104 0.000000
v -1.772611 -0.866431 0.000000
v -1.772611 -0.866431 0.000000
v 0.000000 2.679104 0.000000
v -1.767147 -0.866431 0.139078
v -1.767147 -0.866431 0.139078
v 0.000000 2.679104 0.000000
v -1.750788 -0.866431 0.277298
v -1.750788 -0.866431 0.277298
v 0.000000 2.679104 0.000000
v -1.723634 -0.866431 0.413808
v -1.723634 -0.866431 0.413808
v 0.000000 2.679104 0.000000
v -1.685854 -0.866431 0.547767
v -1.685854 -0.866431 0.547767
v 0.000000 2.679104 0.000000
v -1.637679 -0.866431 0.678349
v -1.637679 -0.866431 0.678349
v 0.000000 2.679104 0.000000
v -1.579409 -0.866431 0.804749
v -1.579409 -0.866431 0.804749
v 0.000000 2.679104 0.000000
v -1.511400 -0.866431 0.926187
v -1.511400 -0.866431 0.926187
v 0.000000 2.679104 0.000000
v -1.434073 -0.866431 1.041915
v -1.434073 -0.866431 1.041915
v 0.000000 2.679104 0.000000
v -1.347904 -0.866431 1.151219
v -1.347904 -0.866431 1.151219
v 0.000000 2.679104 0.000000
v -1.253425 -0.866431 1.253426
v -1.253425 -0.866431 1.253426
v 0.000000 2.679104 0.000000
v -1.151219 -0.866431 1.347904
v -1.151219 -0.866431 1.347904
v 0.000000 2.679104 0.000000
v -1.041915 -0.866432 1.434073
v -1.041915 -0.866432 1.434073
v 0.000000 2.679104 0.000000
v -0.926187 -0.866432 1.511400
v -0.926187 -0.866432 1.511400
v 0.000000 2.679104 0.000000
v -0.804748 -0.866432 1.579409
v -0.804748 -0.866432 1.579409
v 0.000000 2.679104 0.000000
v -0.678348 -0.866432 1.637680
v -0.678348 -0.866432 1.637680
v 0.000000 2.679104 0.000000
v -0.547767 -0.866432 1.685854
v -0.547767 -0.866432 1.685854
v 0.000000 2.679104 0.000000
v -0.413808 -0.866432 1.723634
v -0.413808 -0.866432 1.723634
v 0.000000 2.679104 0.000000
v -0.277298 -0.866432 1.750788
v -0.277298 -0.866432 1.750788
v 0.000000 2.679104 0.000000
v -0.139078 -0.866432 1.767147
v -0.139078 -0.866432 1.767147
v 0.000000 2.679104 0.000000
v 0.000000 -0.866432 1.772611
v 0.000000 -0.866432 1.772611
v 0.000000 2.679104 0.000000
v 0.139078 -0.866432 1.767147
v 0.139078 -0.866432 1.767147
v 0.000000 2.679104 0.000000
v 0.277298 -0.866432 1.750788
v 0.277298 -0.866432 1.750788
v 0.000000 2.679104 0.000000
v 0.413808 -0.866432 1.723634
v 0.413808 -0.866432 1.723634
v 0.000000 2.679104 0.000000
v 0.547767 -0.866432 1.685854
v 0.547767 -0.866432 1.685854
v 0.000000 2.679104 0.000000
v 0.678349 -0.866432 1.637679
v 0.678349 -0.866432 1.637679
v 0.000000 2.679104 0.000000
v 0.804749 -0.866432 1.579408
v 0.804749 -0.866432 1.579408
v 0.000000 2.679104 0.000000
v 0.926187 -0.866432 1.511399
v 0.926187 -0.866432 1.511399
v 0.000000 2.679104 0.000000
v 1.041915 -0.866432 1.434072
v 1.041915 -0.866432 1.434072
v 0.000000 2.679104 0.000000
v 1.151219 -0.866431 1.347904
v 1.151219 -0.866431 1.347904
v 0.000000 2.679104 0.000000
v 1.253426 -0.866431 1.253425
v 1.253426 -0.866431 1.253425
v 0.000000 2.679104 0.000000
v 1.347905 -0.866431 1.151219
v 1.347905 -0.866431 1.151219
v 0.000000 2.679104 0.000000
v 1.434073 -0.866431 1.041914
v 1.434073 -0.866431 1.041914
v 0.000000 2.679104 0.000000
v 1.511400 -0.866431 0.926187
v 1.511400 -0.866431 0.926187
v 0.000000 2.679104 0.000000
v 1.579409 -0.866431 0.804749
v 1.579409 -0.866431 0.804749
v 0.000000 2.679104 0.000000
v 1.637680 -0.866431 0.678349
v 1.637680 -0.866431 0.678349
v 0.000000 2.679104 0.000000
v 1.685854 -0.866431 0.547767
v 1.685854 -0.866431 0.547767
v 0.000000 2.679104 0.000000
v 1.723634 -0.866431 0.413808
v 1.723634 -0.866431 0.413808
v 0.000000 2.679104 0.000000
v 1.750788 -0.866431 0.277297
v 1.750788 -0.866431 0.277297
v 0.000000 2.679104 0.000000
v 1.767147 -0.866431 0.139077
v 1.767147 -0.866431 0.139077
v 0.000000 2.679104 0.000000
v 0.000000 2.679104 0.000000
vn 0.0000 -1.0000 -0.0000
vn 0.8917 0.4472 -0.0702
vn 0.8944 0.4472 0.0000
vn 0.8834 0.4472 -0.1399
vn 0.8697 0.4472 -0.2088
vn 0.8507 0.4472 -0.2764
vn 0.8264 0.4472 -0.3423
vn 0.7970 0.4472 -0.4061
vn 0.7969 0.4472 -0.4061
vn 0.7626 0.4472 -0.4674
vn 0.7236 0.4472 -0.5257
vn 0.7626 0.4472 -0.4673
vn 0.6801 0.4472 -0.5809
vn 0.6325 0.4472 -0.6325
vn 0.5809 0.4472 -0.6801
vn 0.5257 0.4472 -0.7236
vn 0.4673 0.4472 -0.7626
vn 0.4061 0.4472 -0.7970
vn 0.4674 0.4472 -0.7626
vn 0.3423 0.4472 -0.8264
vn 0.2764 0.4472 -0.8507
vn 0.2088 0.4472 -0.8697
vn 0.1399 0.4472 -0.8834
vn 0.0702 0.4472 -0.8917
vn -0.0000 0.4472 -0.8944
vn -0.0702 0.4472 -0.8917
vn -0.1399 0.4472 -0.8834
vn -0.2088 0.4472 -0.8697
vn -0.2764 0.4472 -0.8507
vn -0.3423 0.4472 -0.8264
vn -0.4061 0.4472 -0.7969
vn -0.4674 0.4472 -0.7626
vn -0.4061 0.4472 -0.7970
vn -0.5257 0.4472 -0.7236
vn -0.4673 0.4472 -0.7626
vn -0.5809 0.4472 -0.6801
vn -0.6325 0.4472 -0.6325
vn -0.6801 0.4472 -0.5809
vn -0.7236 0.4472 -0.5257
vn -0.7626 0.4472 -0.4673
vn -0.7970 0.4472 -0.4061
vn -0.7626 0.4472 -0.4674
vn -0.8264 0.4472 -0.3423
vn -0.8507 0.4472 -0.2764
vn -0.8697 0.4472 -0.2088
vn -0.8834 0.4472 -0.1399
vn -0.8917 0.4472 -0.0702
vn -0.8944 0.4472 0.0000
vn -0.8917 0.4472 0.0702
vn -0.8834 0.4472 0.1399
vn -0.8697 0.4472 0.2088
vn -0.8507 0.4472 0.2764
vn -0.8264 0.4472 0.3423
vn -0.7970 0.4472 0.4061
vn -0.7969 0.4472 0.4061
vn -0.7626 0.4472 0.4674
vn -0.7236 0.4472 0.5258
vn -0.7236 0.4472 0.5257
vn -0.7626 0.4472 0.4673
vn -0.6801 0.4472 0.5809
vn -0.6325 0.4472 0.6325
vn -0.5809 0.4472 0.6801
vn -0.5257 0.4472 0.7236
vn -0.4673 0.4472 0.7626
vn -0.4061 0.4472 0.7970
vn -0.4674 0.4472 0.7626
vn -0.3423 0.4472 0.8264
vn -0.2764 0.4472 0.8507
vn -0.2088 0.4472 0.8697
vn -0.1399 0.4472 0.8834
vn -0.0702 0.4472 0.8917
vn 0.0000 0.4472 0.8944
vn 0.0702 0.4472 0.8917
vn 0.1399 0.4472 0.8834
vn 0.2088 0.4472 0.8697
vn 0.2764 0.4472 0.8507
vn 0.3423 0.4472 0.8264
vn 0.4061 0.4472 0.7970
vn 0.4061 0.4472 0.7969
vn 0.4674 0.4472 0.7626
vn 0.5257 0.4472 0.7236
vn 0.4673 0.4472 0.7626
vn 0.5809 0.4472 0.6801
vn 0.6325 0.4472 0.6325
vn 0.6801 0.4472 0.5809
vn 0.7236 0.4472 0.5257
vn 0.7626 0.4472 0.4673
vn 0.7970 0.4472 0.4061
vn 0.7626 0.4472 0.4674
vn 0.8264 0.4472 0.3423
vn 0.8507 0.4472 0.2764
vn 0.8697 0.4472 0.2088
vn 0.8834 0.4472 0.1399
vn 0.8917 0.4472 0.0702
usemtl Material_52
s 1
f 1//1 2//1 3//1
f 4//2 5//2 6//3
f 1//1 7//1 2//1
f 8//4 9//4 4//2
f 1//1 10//1 7//1
f 11//5 12//5 8//4
f 1//1 13//1 10//1
f 14//6 15//6 11//5
f 1//1 16//1 13//1
f 17//7 18//7 14//6
f 1//1 19//1 16//1
f 20//8 21//9 17//7
f 1//1 22//1 19//1
f 23//10 24//10 20//8
f 1//1 25//1 22//1
f 26//11 27//11 23//12
f 1//1 28//1 25//1
f 29//13 30//13 26//11
f 1//1 31//1 28//1
f 32//14 33//14 29//13
f 1//1 34//1 31//1
f 35//15 36//15 32//14
f 1//1 37//1 34//1
f 38//16 39//16 35//15
f 1//1 40//1 37//1
f 41//17 42//17 38//16
f 1//1 43//1 40//1
f 44//18 45//18 41//19
f 1//1 46//1 43//1
f 47//20 48//20 44//18
f 1//1 49//1 46//1
f 50//21 51//21 47//20
f 1//1 52//1 49//1
f 53//22 54//22 50//21
f 1//1 55//1 52//1
f 56//23 57//23 53//22
f 1//1 58//1 55//1
f 59//24 60//24 56//23
f 1//1 61//1 58//1
f 62//25 63//25 59//24
f 1//1 64//1 61//1
f 65//26 66//26 62//25
f 1//1 67//1 64//1
f 68//27 69//27 65//26
f 1//1 70//1 67//1
f 71//28 72//28 68//27
f 1//1 73//1 70//1
f 74//29 75//29 71//28
f 1//1 76//1 73//1
f 77//30 78//30 74//29
f 1//1 79//1 76//1
f 80//31 81//31 77//30
f 1//1 82//1 79//1
f 83//32 84//32 80//33
f 1//1 85//1 82//1
f 86//34 87//34 83//35
f 1//1 88//1 85//1
f 89//36 90//36 86//34
f 1//1 91//1 88//1
f 92//37 93//37 89//36
f 1//1 94//1 91//1
f 95//38 96//38 92//37
f 1//1 97//1 94//1
f 98//39 99//39 95//38
f 1//1 100//1 97//1
f 101//40 102//40 98//39
f 1//1 103//1 100//1
f 104//41 105//41 101//42
f 1//1 106//1 103//1
f 107//43 108//43 104//41
f 1//1 109//1 106//1
f 110//44 111//44 107//43
f 1//1 112//1 109//1
f 113//45 114//45 110//44
f 1//1 115//1 112//1
f 116//46 117//46 113//45
f 1//1 118//1 115//1
f 119//47 120//47 116//46
f 1//1 121//1 118//1
f 122//48 123//48 119//47
f 1//1 124//1 121//1
f 125//49 126//49 122//48
f 1//1 127//1 124//1
f 128//50 129//50 125//49
f 1//1 130//1 127//1
f 131//51 132//51 128//50
f 1//1 133//1 130//1
f 134//52 135//52 131//51
f 1//1 136//1 133//1
f 137//53 138//53 134//52
f 1//1 139//1 136//1
f 140//54 141//55 137//53
f 1//1 142//1 139//1
f 143//56 144//56 140//54
f 1//1 145//1 142//1
f 146//57 147//58 143//59
f 1//1 148//1 145//1
f 149//60 150//60 146//58
f 1//1 151//1 148//1
f 152//61 153//61 149//60
f 1//1 154//1 151//1
f 155//62 156//62 152//61
f 1//1 157//1 154//1
f 158//63 159//63 155//62
f 1//1 160//1 157//1
f 161//64 162//64 158//63
f 1//1 163//1 160//1
f 164//65 165//65 161//66
f 1//1 166//1 163//1
f 167//67 168//67 164//65
f 1//1 169//1 166//1
f 170//68 171//68 167//67
f 1//1 172//1 169//1
f 173//69 174//69 170//68
f 1//1 175//1 172//1
f 176//70 177//70 173//69
f 1//1 178//1 175//1
f 179//71 180//71 176//70
f 1//1 181//1 178//1
f 182//72 183//72 179//71
f 1//1 184//1 181//1
f 185//73 186//73 182//72
f 1//1 187//1 184//1
f 188//74 189//74 185//73
f 1//1 190//1 187//1
f 191//75 192//75 188//74
f 1//1 193//1 190//1
f 194//76 195//76 191//75
f 1//1 196//1 193//1
f 197//77 198//77 194//76
f 1//1 199//1 196//1
f 200//78 201//79 197//77
f 1//1 202//1 199//1
f 203//80 204//80 200//78
f 1//1 205//1 202//1
f 206//81 207//81 203//82
f 1//1 208//1 205//1
f 209//83 210//83 206//81
f 1//1 211//1 208//1
f 212//84 213//84 209//83
f 1//1 214//1 211//1
f 215//85 216//85 212//84
f 1//1 217//1 214//1
f 218//86 219//86 215//85
f 1//1 220//1 217//1
f 221//87 222//87 218//86
f 1//1 223//1 220//1
f 224//88 225//88 221//89
f 1//1 226//1 223//1
f 227//90 228//90 224//88
f 1//1 229//1 226//1
f 230//91 231//91 227//90
f 1//1 232//1 229//1
f 233//92 234//92 230//91
f 1//1 235//1 232//1
f 236//93 237//93 233//92
f 1//1 238//1 235//1
f 239//94 240//94 236//93
f 1//1 3//1 238//1
f 6//3 241//3 239//94
